<?xml version="1.0" encoding="utf-8"?>
<!-- Generator: Adobe Illustrator 18.0.0, SVG Export Plug-In . SVG Version: 6.00 Build 0)  -->
<!DOCTYPE svg PUBLIC "-//W3C//DTD SVG 1.1//EN" "http://www.w3.org/Graphics/SVG/1.1/DTD/svg11.dtd">
<svg version="1.1" id="Layer_1" xmlns="http://www.w3.org/2000/svg" xmlns:xlink="http://www.w3.org/1999/xlink" x="0px" y="0px"
	 viewBox="0 0 300 245" enable-background="new 0 0 300 245" xml:space="preserve">
<polygon fill="#FFFFFF" points="271.6,0 0,0 28.4,202.2 300,202.2 "/>
<g>
	<g>
		<path fill="#00B3D2" d="M67.9,36.6v-4.4c0-2.3,0-4.9-4.1-4.9c-4.5,0-4.5,3.5-4.5,6v24.4c0,3.1,1.1,4.7,4.2,4.7
			c4.4,0,4.4-3.1,4.4-5.4v-7.2h-5.5v-7h14.3V68h-7.5v-2.8c-1.3,1.4-3.4,3.7-8.5,3.7c-4.3,0-10.4-1.8-10.4-9.4V33.2
			c0-4.7,0.4-12.5,13.7-12.5c2.2,0,6.3,0.3,9.2,2.1c2.7,1.7,3.6,4.2,3.6,7.1v6.8H67.9z"/>
		<path fill="#00B3D2" d="M110.3,23.6c-2.2-1.8-5.6-2.9-10-2.9c-5.4,0-9,1.6-10.9,3.5c-2.4,2.5-2.5,6-2.5,7.9v25.9
			C87,64,89.6,69,100.4,69c3.2,0,7.7-0.4,10.5-3.3c1.9-1.8,2.6-4.2,2.6-7.6V32.4C113.5,27.9,112.7,25.5,110.3,23.6z M104.6,56.8
			c0,2.2,0,5.4-4.3,5.4c-4.4,0-4.5-3-4.5-5.6V33.3c0-2.6,0-6.1,4.6-6.1c4.3,0,4.3,3.4,4.3,5.8V56.8z"/>
		<path fill="#FFFFFF" d="M104.6,33v23.9c0,2.2,0,5.4-4.3,5.4c-4.4,0-4.5-3-4.5-5.6V33.3c0-2.6,0-6.1,4.6-6.1
			C104.6,27.2,104.6,30.5,104.6,33z"/>
	</g>
</g>
<g>
	<path fill="#00A67A" d="M133.1,148.6h-7.9v-5.7c0-2,0.1-5.5,3.2-8.1c2.9-2.3,6.8-2.4,8.5-2.4c5.2,0,10.2,1.7,11.5,6.6
		c0.1,0.3,0.6,2.9,0.6,4.8v4.8c0,5-1.2,6.7-6.9,12.2c-7.5,7.3-8.2,8-8.5,11.7h16.1v7h-25.4c0-12.2,4.1-16.2,8.8-20.7
		c7.2-6.9,7.7-7.3,7.7-10.8v-5.3c0-1.4-0.2-4.1-3.5-4.1c-3.8,0-4.1,2.5-4.1,4.5V148.6z"/>
	<path fill="#00A67A" d="M168.9,132.3c-3.8,0-7.8,1-10.2,4.3c-1.7,2.4-1.9,4.8-1.9,7.9v24c0,3.4,0,11.5,12.4,11.5
		c1.9,0,5.6-0.1,8.5-2.6c3-2.6,3.5-6.2,3.5-8.7v-25C181.2,140.9,181.2,132.3,168.9,132.3z M172.9,168.8c0,1.8,0,4.9-4,4.9
		c-3.8,0-3.8-3.2-3.8-4.3v-26.1c0-2,0-4.9,4-4.9c3.8,0,3.8,2.8,3.8,5.2V168.8z"/>
	<path fill="#FFFFFF" d="M172.9,143.6v25.2c0,1.8,0,4.9-4,4.9c-3.8,0-3.8-3.2-3.8-4.3v-26.1c0-2,0-4.9,4-4.9
		C172.9,138.4,172.9,141.1,172.9,143.6z"/>
	<path fill="#00A67A" d="M198.4,146.8h-8v-5.7c0-2.7,1.3-5.4,3.7-6.8c2.4-1.5,5.9-2,8.3-2c11.3,0,11.7,7.9,11.7,9.4v5.5
		c0,4.8-1.7,6.4-6.9,7.2c5.6,0.9,7.2,1.7,7.2,8v7.1c0,8.2-6.4,10.6-12.2,10.6c-8,0-12.3-4.3-12.3-9.6v-5.7h8.3v5
		c0,1.4,0,4.1,4.1,4.1c2.3,0,3.6-1.1,3.6-3.8v-6.9c0-5.5-2.2-5.8-8-5.8v-5.5c5.6,0,7.7-0.7,7.7-5.7v-3.5c0-1.7,0-4.1-3.6-4.1
		c-3.8,0-3.8,2.7-3.8,3.4V146.8z"/>
	<path fill="#00A67A" d="M235.5,132.3c-3.8,0-7.8,1-10.2,4.3c-1.7,2.4-1.9,4.8-1.9,7.9v24c0,3.4,0,11.5,12.4,11.5
		c1.9,0,5.6-0.1,8.5-2.6c3-2.6,3.5-6.2,3.5-8.7v-25C247.8,140.9,247.8,132.3,235.5,132.3z M239.5,168.8c0,1.8,0,4.9-4,4.9
		c-3.8,0-3.8-3.2-3.8-4.3v-26.1c0-2,0-4.9,4-4.9c3.8,0,3.8,2.8,3.8,5.2V168.8z"/>
	<path fill="#FFFFFF" d="M239.5,143.6v25.2c0,1.8,0,4.9-4,4.9c-3.8,0-3.8-3.2-3.8-4.3v-26.1c0-2,0-4.9,4-4.9
		C239.5,138.4,239.5,141.1,239.5,143.6z"/>
</g>
<g>
	<path fill="#00B3D2" d="M52.2,77.2h14.9c3.4,0,5.4,0.2,7.3,1.4c3.1,1.9,3.5,4.9,3.5,8.1v4.1c0,6-2.2,7.2-5.6,7.8
		c5.7,1,6.1,3.5,6.1,8.5v6.6c0,2.5,0,6.4-3.3,8.5c-1.8,1.2-4.3,1.4-7.7,1.4H52.2V77.2z M61.1,95.5c3.9,0,5,0,5.7-0.1
		c1.8-0.4,2.4-1.8,2.4-4.1c0-4.3,0-4.7-0.3-5.5c-0.5-1.5-2-1.9-4.2-1.9h-3.5V95.5z M61.1,116.8h3.7c3.7,0,5-0.4,5-4.7v-5.4
		c0-3.8-1.2-4.5-4.9-4.5h-3.8V116.8z"/>
	<path fill="#00B3D2" d="M110.5,79.1c-2.2-1.8-5.6-2.9-10-2.9c-5.4,0-9,1.6-10.9,3.5c-2.4,2.5-2.5,6-2.5,7.9v25.9
		c0,5.9,2.6,10.9,13.4,10.9c3.2,0,7.7-0.4,10.5-3.3c1.9-1.8,2.6-4.2,2.6-7.6V87.9C113.7,83.4,112.9,81,110.5,79.1z M104.8,112.3
		c0,2.2,0,5.4-4.4,5.4c-4.3,0-4.5-3-4.5-5.6V88.8c0-2.6,0-6.1,4.6-6.1c4.3,0,4.3,3.3,4.3,5.8V112.3z"/>
	<path fill="#FFFFFF" d="M104.8,88.4v23.9c0,2.2,0,5.4-4.4,5.4c-4.3,0-4.5-3-4.5-5.6V88.8c0-2.6,0-6.1,4.6-6.1
		C104.8,82.7,104.8,86,104.8,88.4z"/>
	<path fill="#00B3D2" d="M122.8,107.1h8.8v5.4c0,2.7,0,5.4,4.3,5.4c4.3,0,4.3-2.8,4.3-6.9c0-3.3-0.7-4.7-3-6.2l-8.4-5.4
		c-4.5-3-5.7-6.2-5.7-10.9c0-3.6,0.3-7.1,3.5-9.6c1.8-1.4,5-2.8,9.6-2.8c5.2,0,12.2,2,12.2,10v4.6h-8.8v-3.3c0-2.2,0-4.7-3.9-4.7
		c-2.4,0-4.1,0.9-4.1,4.6c0,3.9,0.9,4.7,2.8,6l8.7,5.7c1.7,1.2,3.5,2.8,4.6,4.5c1.3,2.1,1.3,3.5,1.3,7.3c0,4.1,0,6.7-1.6,9.1
		c-2.6,4.1-8.2,4.6-11.4,4.6c-7.5,0-13.3-2.8-13.3-10.6V107.1z"/>
	<path fill="#00B3D2" d="M154.4,77.2H181v6.7h-8.8v39.6h-8.9V83.9h-8.8V77.2z"/>
	<path fill="#00B3D2" d="M209.2,79.1c-2.2-1.8-5.6-2.9-10-2.9c-5.4,0-9,1.6-10.9,3.5c-2.4,2.5-2.5,6-2.5,7.9v25.9
		c0,5.9,2.6,10.9,13.5,10.9c3.2,0,7.7-0.4,10.5-3.3c1.9-1.8,2.6-4.2,2.6-7.6V87.9C212.4,83.4,211.6,81,209.2,79.1z M203.5,112.3
		c0,2.2,0,5.4-4.4,5.4c-4.3,0-4.5-3-4.5-5.6V88.8c0-2.6,0-6.1,4.5-6.1c4.3,0,4.3,3.3,4.3,5.8V112.3z"/>
	<path fill="#FFFFFF" d="M203.5,88.4v23.9c0,2.2,0,5.4-4.4,5.4c-4.3,0-4.5-3-4.5-5.6V88.8c0-2.6,0-6.1,4.5-6.1
		C203.5,82.7,203.5,86,203.5,88.4z"/>
	<path fill="#00B3D2" d="M247,123.5h-11.1l-8.6-34.7l0.8,34.7h-8.3V77.2h11.3l8.6,34l-0.9-34h8.1V123.5z"/>
</g>
<g>
	<path fill="#FFFFFF" d="M32.2,213.7v20.4h-2.7v-20.4H32.2z"/>
	<path fill="#FFFFFF" d="M36.8,219.7c0.4-0.6,0.9-1.3,2.2-1.3c1.6,0,2,1,2.2,1.5c0.3-0.5,0.9-1.5,2.4-1.5c2.4,0,2.4,2.1,2.4,3.3
		v12.4h-2.3v-12.2c0-0.7,0-1.4-1.1-1.4c-1.2,0-1.2,0.9-1.2,1.6v12h-2.3V222c0-0.7,0-1.5-1-1.5c-1.2,0-1.2,1.2-1.2,1.6v12h-2.3v-15.5
		h2.3V219.7z"/>
	<path fill="#FFFFFF" d="M48.3,221.7c0-0.9,0-3.3,3.3-3.3s3.3,2.3,3.3,3.3v9.8c0,1,0,1.8,0.4,2.6h-2.5c-0.2-0.5-0.3-0.7-0.4-1.2
		c-0.4,0.7-1,1.4-2.2,1.4c-2.2,0-2.2-1.8-2.2-2.6v-2.7c0-1.1,0-2,1.4-2.9l2.2-1.4c0.5-0.3,0.9-0.7,0.9-0.9v-2.3c0-0.5-0.1-1.2-1-1.2
		c-1,0-1,0.7-1,1.2v2.2h-2.4V221.7z M52.7,226.4c-0.2,0.2-0.9,0.7-1.4,1c-0.7,0.5-0.8,0.9-0.8,1.6v1.6c0,0.8,0,1.8,0.9,1.8
		c1.3,0,1.3-2,1.3-2.4V226.4z"/>
	<path fill="#FFFFFF" d="M57.2,221.2c0-0.6,0-1.5,0.7-2.2c0.5-0.5,1-0.7,1.7-0.7c1.4,0,2,1,2.2,1.4v-1.1h2.3v16
		c0,1.2-0.3,2.5-1.6,3.2c-0.6,0.3-1.3,0.4-1.9,0.4c-1.1,0-3.5-0.4-3.3-3.2h2.3c0,0.2-0.1,1.2,1.1,1.2c1.1,0,1.1-1,1.1-1.3v-2
		c-0.6,0.8-1.2,1.2-2.1,1.2c-1,0-2.4-0.3-2.4-2.6V221.2z M61.8,222.4c0-1-0.1-2-1.2-2c-1.1,0-1.1,0.8-1.1,2.4v7.6
		c0,0.8,0,1.6,1.1,1.6c1.2,0,1.2-1,1.2-1.7V222.4z"/>
	<path fill="#FFFFFF" d="M66.4,218.6h2.3v15.4h-2.3V218.6z M68.8,213.8v3.1h-2.3v-3.1H68.8z"/>
	<path fill="#FFFFFF" d="M73.4,219.6c0.4-0.5,1-1.3,2.3-1.3c2.3,0,2.3,2.2,2.3,3.2v12.5h-2.4V222c0-0.7,0-1.5-1-1.5
		c-1.2,0-1.2,1.1-1.2,1.9v11.7h-2.3v-15.4h2.3V219.6z"/>
	<path fill="#FFFFFF" d="M80.3,218.6h2.3v15.4h-2.3V218.6z M82.6,213.8v3.1h-2.3v-3.1H82.6z"/>
	<path fill="#FFFFFF" d="M87.3,219.6c0.4-0.5,1-1.3,2.3-1.3c2.3,0,2.3,2.2,2.3,3.2v12.5h-2.4V222c0-0.7,0-1.5-1-1.5
		c-1.2,0-1.2,1.1-1.2,1.9v11.7H85v-15.4h2.3V219.6z"/>
	<path fill="#FFFFFF" d="M94,221.2c0-0.6,0-1.5,0.7-2.2c0.5-0.5,1-0.7,1.7-0.7c1.4,0,2,1,2.2,1.4v-1.1h2.3v16c0,1.2-0.3,2.5-1.6,3.2
		c-0.6,0.3-1.3,0.4-1.9,0.4c-1.1,0-3.5-0.4-3.3-3.2h2.3c0,0.2-0.1,1.2,1.1,1.2c1.1,0,1.1-1,1.1-1.3v-2c-0.6,0.8-1.2,1.2-2.1,1.2
		c-1,0-2.4-0.3-2.4-2.6V221.2z M98.5,222.4c0-1-0.1-2-1.2-2c-1.1,0-1.1,0.8-1.1,2.4v7.6c0,0.8,0,1.6,1.1,1.6c1.2,0,1.2-1,1.2-1.7
		V222.4z"/>
	<path fill="#FFFFFF" d="M109.1,219.2c0-1.8,0.1-3.2,1-4.2c0.8-1,2.1-1.4,3.3-1.4c1.1,0,2.2,0.3,3.1,1.2c1.1,1.2,1.1,2.6,1.1,5.1
		v9.7c0,1.5-0.1,4.8-4.4,4.8c-0.5,0-2.6,0-3.6-2c-0.5-0.9-0.5-1.9-0.5-2.9V219.2z M114.9,219c0-1.8,0-3.1-1.6-3.1
		c-0.2,0-1.2,0-1.5,1c-0.1,0.4-0.1,0.8-0.1,2.1v10.9c0,1,0.1,2.1,1.6,2.1c1.6,0,1.6-1.3,1.6-2.8V219z"/>
	<path fill="#FFFFFF" d="M124.4,233.1c-0.4,0.5-1,1.3-2.3,1.3c-2.3,0-2.3-2.2-2.3-3.2v-12.5h2.4v12.1c0,0.7,0,1.5,1,1.5
		c1.2,0,1.2-1.1,1.2-1.9v-11.7h2.3v15.4h-2.3V233.1z"/>
	<path fill="#FFFFFF" d="M131.3,220.4c0.4-0.9,0.9-2,2.4-2c0.2,0,0.4,0,0.6,0.1v2.7c-0.3-0.2-0.7-0.5-1.4-0.5c-1.6,0-1.7,1.9-1.7,3
		v10.4h-2.3v-15.5h2.4V220.4z"/>
	<path fill="#FFFFFF" d="M140.7,213.7h9v2.4h-3.2v18h-2.7v-18h-3.1V213.7z"/>
	<path fill="#FFFFFF" d="M151.7,220.4c0.4-0.9,0.9-2,2.4-2c0.2,0,0.4,0,0.6,0.1v2.7c-0.3-0.2-0.7-0.5-1.4-0.5c-1.6,0-1.7,1.9-1.7,3
		v10.4h-2.3v-15.5h2.4V220.4z"/>
	<path fill="#FFFFFF" d="M155.4,221.7c0-0.9,0-3.3,3.3-3.3c3.3,0,3.3,2.3,3.3,3.3v9.8c0,1,0,1.8,0.4,2.6H160
		c-0.2-0.5-0.3-0.7-0.4-1.2c-0.4,0.7-1,1.4-2.2,1.4c-2.2,0-2.2-1.8-2.2-2.6v-2.7c0-1.1,0-2,1.4-2.9l2.2-1.4c0.5-0.3,0.9-0.7,0.9-0.9
		v-2.3c0-0.5-0.1-1.2-1-1.2c-1,0-1,0.7-1,1.2v2.2h-2.4V221.7z M159.8,226.4c-0.2,0.2-0.9,0.7-1.4,1c-0.7,0.5-0.8,0.9-0.8,1.6v1.6
		c0,0.8,0,1.8,0.9,1.8c1.3,0,1.3-2,1.3-2.4V226.4z"/>
	<path fill="#FFFFFF" d="M166.7,219.6c0.4-0.5,1-1.3,2.3-1.3c2.3,0,2.3,2.2,2.3,3.2v12.5h-2.4V222c0-0.7,0-1.5-1-1.5
		c-1.2,0-1.2,1.1-1.2,1.9v11.7h-2.3v-15.4h2.3V219.6z"/>
	<path fill="#FFFFFF" d="M175.3,226.4c-1.6-1.7-2-2.5-2-4.2c0-2.1,0.9-3.8,3.4-3.8c3.2,0,3.2,2.5,3.3,4.8h-2.2
		c0-1.9-0.1-2.7-1.2-2.7c-1.1,0-1.1,1-1.1,1.5c0,0.9,0.2,1.4,1.2,2.5l1.1,1c1.2,1.2,2.3,2.3,2.3,4.7c0,2.9-1.6,4.2-3.6,4.2
		c-1.2,0-2.6-0.5-3.2-2c-0.3-0.8-0.3-1.4-0.3-4h2.2c0,2,0,2.5,0.1,3c0.2,0.9,0.8,1,1.2,1c1.2,0,1.2-1.2,1.2-2c0-0.9-0.1-1.5-1.2-2.7
		L175.3,226.4z"/>
	<path fill="#FFFFFF" d="M184.1,219.7c0.4-0.5,1-1.3,2.2-1.3c1.8,0,2.3,1.3,2.3,2.9v9.8c0,0.6,0,3.2-2.4,3.2c-1.3,0-1.8-0.9-2.2-1.3
		v5.3h-2.3v-19.7h2.3V219.7z M186.4,222c0-1-0.2-1.5-1-1.5c-1.2,0-1.2,1.2-1.2,1.9v8.5c0,0.4,0,1.4,1.1,1.4c0.8,0,1.1-0.6,1.1-1.5
		V222z"/>
	<path fill="#FFFFFF" d="M190.9,222.8c0-1.5,0-4.4,3.5-4.4c3.4,0,3.4,2.5,3.4,3.6v8.7c0,1-0.1,3.7-3.5,3.7c-3.4,0-3.4-2.6-3.4-4.4
		V222.8z M195.5,221.8c0-0.7,0-1.5-1.1-1.5c-1.2,0-1.2,1-1.2,1.7v9.1c0,0.6,0,1.4,1.1,1.4c1.2,0,1.2-0.9,1.2-1.6V221.8z"/>
	<path fill="#FFFFFF" d="M202.3,220.4c0.4-0.9,0.9-2,2.4-2c0.2,0,0.4,0,0.6,0.1v2.7c-0.3-0.2-0.7-0.5-1.4-0.5c-1.6,0-1.7,1.9-1.7,3
		v10.4h-2.3v-15.5h2.4V220.4z"/>
	<path fill="#FFFFFF" d="M209.3,215.3v3.3h1.3v1.9h-1.3v10.7c0,1,0.3,1.2,1.5,1.1v1.8c-0.4,0.1-0.8,0.1-1.3,0.1
		c-2.3,0-2.5-0.9-2.5-2.5v-11.1h-1.4v-1.9h1.4v-3.3H209.3z"/>
	<path fill="#FFFFFF" d="M211.9,221.7c0-0.9,0-3.3,3.3-3.3c3.3,0,3.3,2.3,3.3,3.3v9.8c0,1,0,1.8,0.4,2.6h-2.5
		c-0.2-0.5-0.3-0.7-0.4-1.2c-0.4,0.7-1,1.4-2.2,1.4c-2.2,0-2.2-1.8-2.2-2.6v-2.7c0-1.1,0-2,1.4-2.9l2.2-1.4c0.5-0.3,0.9-0.7,0.9-0.9
		v-2.3c0-0.5-0.1-1.2-1-1.2c-1,0-1,0.7-1,1.2v2.2h-2.4V221.7z M216.3,226.4c-0.2,0.2-0.9,0.7-1.4,1c-0.7,0.5-0.8,0.9-0.8,1.6v1.6
		c0,0.8,0,1.8,0.9,1.8c1.3,0,1.3-2,1.3-2.4V226.4z"/>
	<path fill="#FFFFFF" d="M223.7,215.3v3.3h1.3v1.9h-1.3v10.7c0,1,0.3,1.2,1.5,1.1v1.8c-0.4,0.1-0.8,0.1-1.3,0.1
		c-2.3,0-2.5-0.9-2.5-2.5v-11.1H220v-1.9h1.4v-3.3H223.7z"/>
	<path fill="#FFFFFF" d="M226.5,218.6h2.3v15.4h-2.3V218.6z M228.8,213.8v3.1h-2.3v-3.1H228.8z"/>
	<path fill="#FFFFFF" d="M231.1,222.8c0-1.5,0-4.4,3.5-4.4c3.4,0,3.4,2.5,3.4,3.6v8.7c0,1-0.1,3.7-3.5,3.7c-3.4,0-3.4-2.6-3.4-4.4
		V222.8z M235.8,221.8c0-0.7,0-1.5-1.1-1.5c-1.2,0-1.2,1-1.2,1.7v9.1c0,0.6,0,1.4,1.1,1.4c1.2,0,1.2-0.9,1.2-1.6V221.8z"/>
	<path fill="#FFFFFF" d="M242.5,219.6c0.4-0.5,1-1.3,2.3-1.3c2.3,0,2.3,2.2,2.3,3.2v12.5h-2.4V222c0-0.7,0-1.5-1-1.5
		c-1.2,0-1.2,1.1-1.2,1.9v11.7h-2.3v-15.4h2.3V219.6z"/>
	<path fill="#FFFFFF" d="M255.3,213.7h7v2.5H258v5.9h3.9v2.5H258v9.5h-2.7V213.7z"/>
	<path fill="#FFFFFF" d="M268.2,233.1c-0.4,0.5-1,1.3-2.3,1.3c-2.3,0-2.3-2.2-2.3-3.2v-12.5h2.4v12.1c0,0.7,0,1.5,1,1.5
		c1.2,0,1.2-1.1,1.2-1.9v-11.7h2.3v15.4h-2.3V233.1z"/>
	<path fill="#FFFFFF" d="M275.5,215.3v3.3h1.3v1.9h-1.3v10.7c0,1,0.3,1.2,1.5,1.1v1.8c-0.4,0.1-0.8,0.1-1.3,0.1
		c-2.3,0-2.5-0.9-2.5-2.5v-11.1h-1.4v-1.9h1.4v-3.3H275.5z"/>
	<path fill="#FFFFFF" d="M282.6,233.1c-0.4,0.5-1,1.3-2.3,1.3c-2.3,0-2.3-2.2-2.3-3.2v-12.5h2.4v12.1c0,0.7,0,1.5,1,1.5
		c1.2,0,1.2-1.1,1.2-1.9v-11.7h2.3v15.4h-2.3V233.1z"/>
	<path fill="#FFFFFF" d="M289.5,220.4c0.4-0.9,0.9-2,2.4-2c0.2,0,0.4,0,0.6,0.1v2.7c-0.3-0.2-0.7-0.5-1.4-0.5c-1.6,0-1.7,1.9-1.7,3
		v10.4h-2.3v-15.5h2.4V220.4z"/>
	<path fill="#FFFFFF" d="M293.1,222.9c0-1.1,0-1.9,0.3-2.6c0.5-1.2,1.7-1.9,3.2-1.9c3.4,0,3.4,2.8,3.4,3.5v5h-4.6v4.3
		c0,0.4,0,1.3,1.1,1.3c1.1,0,1.2-1,1.2-1.4v-2.7h2.3v2.2c0,0.9,0,3.8-3.5,3.8c-0.5,0-1-0.1-1.4-0.2c-2-0.6-2-2.3-2-3V222.9z
		 M297.7,221.7c0-0.6,0-1.4-1.1-1.4c-1.2,0-1.2,1-1.2,1.7v3h2.3V221.7z"/>
</g>
</svg>
